<svg width="88" height="26" viewBox="0 0 88 26" fill="none" xmlns="http://www.w3.org/2000/svg">
<rect x="79" y="1" width="4" height="12" fill="#27AE60"/>
<rect x="75" y="9" width="4" height="12" transform="rotate(-90 75 9)" fill="#27AE60"/>
<rect x="80" width="4" height="12" fill="#EB5757" fill-opacity="0.8"/>
<rect x="76" y="8" width="4" height="12" transform="rotate(-90 76 8)" fill="#EB5757" fill-opacity="0.8"/>
<path d="M6.502 14.946L9.61 20H6.712L4.136 15.548L3.352 20H0.958L2.694 10.102H5.088L4.318 14.47L8.476 10.102H11.346L6.502 14.946ZM15.79 12.09C16.4807 12.09 17.0873 12.2207 17.61 12.482C18.142 12.7433 18.5527 13.126 18.842 13.63C19.1407 14.1247 19.29 14.7127 19.29 15.394C19.29 15.674 19.262 15.9773 19.206 16.304C19.066 17.0787 18.772 17.7507 18.324 18.32C17.876 18.8893 17.3207 19.328 16.658 19.636C16.0047 19.944 15.3 20.098 14.544 20.098C13.844 20.098 13.228 19.9673 12.696 19.706C12.164 19.4353 11.7487 19.0527 11.45 18.558C11.1607 18.0633 11.016 17.4753 11.016 16.794C11.016 16.5047 11.044 16.2013 11.1 15.884C11.24 15.1093 11.534 14.4373 11.982 13.868C12.43 13.2893 12.9853 12.8507 13.648 12.552C14.32 12.244 15.034 12.09 15.79 12.09ZM15.496 14.162C15.0387 14.162 14.6233 14.3253 14.25 14.652C13.886 14.9787 13.648 15.4593 13.536 16.094C13.4987 16.3367 13.48 16.5093 13.48 16.612C13.48 17.0693 13.6013 17.4193 13.844 17.662C14.096 17.8953 14.418 18.012 14.81 18.012C15.2673 18.012 15.678 17.8487 16.042 17.522C16.4153 17.1953 16.658 16.7193 16.77 16.094C16.798 15.9073 16.812 15.7347 16.812 15.576C16.812 15.1187 16.686 14.7687 16.434 14.526C16.1913 14.2833 15.8787 14.162 15.496 14.162ZM26.1031 12.104C26.8684 12.104 27.4611 12.3233 27.8811 12.762C28.3104 13.1913 28.5251 13.8027 28.5251 14.596C28.5251 14.8667 28.4971 15.156 28.4411 15.464L27.6291 20H25.2491L25.9911 15.744C26.0191 15.5853 26.0331 15.4407 26.0331 15.31C26.0331 14.918 25.9211 14.6147 25.6971 14.4C25.4731 14.1853 25.1604 14.078 24.7591 14.078C24.2831 14.078 23.8724 14.232 23.5271 14.54C23.1911 14.848 22.9764 15.2867 22.8831 15.856L22.1551 20H19.7471L21.1191 12.188H23.5271L23.2751 13.588C23.5831 13.1307 23.9798 12.7713 24.4651 12.51C24.9598 12.2393 25.5058 12.104 26.1031 12.104ZM32.4 17.116C32.3814 17.2467 32.372 17.3353 32.372 17.382C32.372 17.578 32.428 17.7227 32.54 17.816C32.652 17.9 32.834 17.942 33.086 17.942H33.842L33.478 20H32.386C31.602 20 30.9954 19.8367 30.566 19.51C30.146 19.1833 29.936 18.6467 29.936 17.9C29.936 17.6013 29.9594 17.326 30.006 17.074L30.51 14.204H29.474L29.838 12.188H30.874L31.21 10.27H33.618L33.282 12.188H34.836L34.486 14.204H32.918L32.4 17.116ZM39.2756 12.09C39.9009 12.09 40.4142 12.23 40.8156 12.51C41.2262 12.7807 41.4876 13.1447 41.5996 13.602L41.8516 12.188H44.2456L42.8596 20H40.4656L40.7316 18.586C40.4516 19.0527 40.0689 19.4213 39.5836 19.692C39.1076 19.9627 38.5662 20.098 37.9596 20.098C37.1102 20.098 36.4382 19.8273 35.9436 19.286C35.4489 18.7353 35.2016 17.9747 35.2016 17.004C35.2016 16.6213 35.2342 16.248 35.2996 15.884C35.4396 15.1093 35.7009 14.4373 36.0836 13.868C36.4756 13.2893 36.9469 12.8507 37.4976 12.552C38.0576 12.244 38.6502 12.09 39.2756 12.09ZM39.7936 14.19C39.2802 14.19 38.8322 14.358 38.4496 14.694C38.0762 15.03 37.8382 15.4967 37.7356 16.094C37.7076 16.262 37.6936 16.416 37.6936 16.556C37.6936 17.0133 37.8196 17.368 38.0716 17.62C38.3329 17.872 38.6782 17.998 39.1076 17.998C39.6116 17.998 40.0549 17.8253 40.4376 17.48C40.8202 17.1347 41.0629 16.6727 41.1656 16.094C41.1936 15.9353 41.2076 15.786 41.2076 15.646C41.2076 15.1887 41.0769 14.834 40.8156 14.582C40.5636 14.3207 40.2229 14.19 39.7936 14.19ZM47.4892 20.098C46.6585 20.098 45.9912 19.818 45.4872 19.258C44.9832 18.698 44.7312 17.928 44.7312 16.948C44.7312 16.5933 44.7639 16.2387 44.8292 15.884C44.9692 15.1093 45.2305 14.4373 45.6132 13.868C46.0052 13.2893 46.4765 12.8507 47.0272 12.552C47.5872 12.244 48.1799 12.09 48.8052 12.09C49.4399 12.09 49.9579 12.2253 50.3592 12.496C50.7605 12.7667 51.0172 13.1353 51.1292 13.602L51.3812 12.188H53.7612L52.3892 19.958C52.2679 20.686 52.0159 21.3393 51.6332 21.918C51.2599 22.506 50.7605 22.9727 50.1352 23.318C49.5099 23.6633 48.7819 23.836 47.9512 23.836C46.7939 23.836 45.9025 23.556 45.2772 22.996C44.6519 22.4453 44.3252 21.694 44.2972 20.742H46.6632C46.6912 21.0593 46.8219 21.3067 47.0552 21.484C47.2885 21.6613 47.6199 21.75 48.0492 21.75C48.5439 21.75 48.9639 21.6053 49.3092 21.316C49.6639 21.036 49.8972 20.5833 50.0092 19.958L50.2612 18.586C49.9812 19.0527 49.5985 19.4213 49.1132 19.692C48.6372 19.9627 48.0959 20.098 47.4892 20.098ZM49.3092 14.19C48.7959 14.19 48.3525 14.358 47.9792 14.694C47.6059 15.03 47.3679 15.4967 47.2652 16.094C47.2372 16.262 47.2232 16.4207 47.2232 16.57C47.2232 17.018 47.3492 17.368 47.6012 17.62C47.8625 17.872 48.2079 17.998 48.6372 17.998C49.1412 17.998 49.5845 17.8253 49.9672 17.48C50.3499 17.1347 50.5925 16.6727 50.6952 16.094C50.7232 15.9353 50.7372 15.786 50.7372 15.646C50.7372 15.1887 50.6065 14.834 50.3452 14.582C50.0839 14.3207 49.7385 14.19 49.3092 14.19ZM55.4938 10.214C55.4938 9.794 55.6525 9.444 55.9698 9.164C56.2871 8.87467 56.6838 8.73 57.1598 8.73C57.5331 8.73 57.8271 8.828 58.0418 9.024C58.2658 9.21067 58.3778 9.458 58.3778 9.766C58.3778 10.1767 58.2191 10.5267 57.9018 10.816C57.5938 11.096 57.2018 11.236 56.7258 11.236C56.3431 11.236 56.0398 11.1427 55.8158 10.956C55.6011 10.76 55.4938 10.5127 55.4938 10.214ZM57.7478 12.188L56.3618 20H53.9678L55.3398 12.188H57.7478ZM62.999 12.09C63.6897 12.09 64.2963 12.2207 64.819 12.482C65.351 12.7433 65.7617 13.126 66.051 13.63C66.3497 14.1247 66.499 14.7127 66.499 15.394C66.499 15.674 66.471 15.9773 66.415 16.304C66.275 17.0787 65.981 17.7507 65.533 18.32C65.085 18.8893 64.5297 19.328 63.867 19.636C63.2137 19.944 62.509 20.098 61.753 20.098C61.053 20.098 60.437 19.9673 59.905 19.706C59.373 19.4353 58.9577 19.0527 58.659 18.558C58.3697 18.0633 58.225 17.4753 58.225 16.794C58.225 16.5047 58.253 16.2013 58.309 15.884C58.449 15.1093 58.743 14.4373 59.191 13.868C59.639 13.2893 60.1943 12.8507 60.857 12.552C61.529 12.244 62.243 12.09 62.999 12.09ZM62.705 14.162C62.2477 14.162 61.8323 14.3253 61.459 14.652C61.095 14.9787 60.857 15.4593 60.745 16.094C60.7077 16.3367 60.689 16.5093 60.689 16.612C60.689 17.0693 60.8103 17.4193 61.053 17.662C61.305 17.8953 61.627 18.012 62.019 18.012C62.4763 18.012 62.887 17.8487 63.251 17.522C63.6243 17.1953 63.867 16.7193 63.979 16.094C64.007 15.9073 64.021 15.7347 64.021 15.576C64.021 15.1187 63.895 14.7687 63.643 14.526C63.4003 14.2833 63.0877 14.162 62.705 14.162ZM73.3121 12.104C74.0774 12.104 74.6701 12.3233 75.0901 12.762C75.5194 13.1913 75.7341 13.8027 75.7341 14.596C75.7341 14.8667 75.7061 15.156 75.6501 15.464L74.8381 20H72.4581L73.2001 15.744C73.2281 15.5853 73.2421 15.4407 73.2421 15.31C73.2421 14.918 73.1301 14.6147 72.9061 14.4C72.6821 14.1853 72.3694 14.078 71.9681 14.078C71.4921 14.078 71.0814 14.232 70.7361 14.54C70.4001 14.848 70.1854 15.2867 70.0921 15.856L69.3641 20H66.9561L68.3281 12.188H70.7361L70.4841 13.588C70.7921 13.1307 71.1887 12.7713 71.6741 12.51C72.1687 12.2393 72.7147 12.104 73.3121 12.104Z" fill="#1D4354"/>
</svg>
